<svg width="24" height="24" viewBox="0 0 24 24" fill="none" xmlns="http://www.w3.org/2000/svg">
<path d="M12 0C10.0109 0 8.10322 0.790176 6.6967 2.1967C5.29018 3.60322 4.5 5.51088 4.5 7.5C4.5 15 12 24 12 24C12 24 19.5 15 19.5 7.5C19.5 5.51088 18.7098 3.60322 17.3033 2.1967C15.8968 0.790176 13.9891 0 12 0ZM12 12C10.8065 12 9.66193 11.5259 8.81802 10.682C7.97411 9.83807 7.5 8.69347 7.5 7.5C7.5 6.30653 7.97411 5.16193 8.81802 4.31802C9.66193 3.47411 10.8065 3 12 3C13.1935 3 14.3381 3.47411 15.182 4.31802C16.0259 5.16193 16.5 6.30653 16.5 7.5C16.5 8.69347 16.0259 9.83807 15.182 10.682C14.3381 11.5259 13.1935 12 12 12Z" fill="#060606"/>
</svg>
