<svg width="66" height="66" viewBox="0 0 66 66" fill="none" xmlns="http://www.w3.org/2000/svg">
<path d="M62.1534 17.7325C57.9835 9.91989 50.9456 4.16127 42.3384 1.51987C37.0983 -0.0879889 31.495 -0.42736 26.1286 0.536169C20.9359 1.47003 15.963 3.62017 11.7529 6.74689C11.2051 7.15509 11.0958 7.92164 11.516 8.46273C11.9339 8.99789 12.7186 9.10469 13.2712 8.69412C17.1728 5.79641 21.7776 3.81122 26.5853 2.94499C31.5521 2.05384 36.7376 2.3683 41.5902 3.85749C49.556 6.3031 56.0716 11.6322 59.9355 18.8658C63.7993 26.1005 64.5476 34.3688 62.0441 42.1506C59.5407 49.9324 54.0856 56.2974 46.6809 60.072C39.275 63.8466 30.8112 64.5776 22.8453 62.132C17.9927 60.6428 13.5555 58.0037 10.0026 54.4973C6.56138 51.1024 3.95104 46.8994 2.44727 42.3417C2.23835 41.6973 1.53262 41.3425 0.871837 41.5502C0.472209 41.6783 0.178257 41.9821 0.0604336 42.3488H0.0567896C-0.0185203 42.5802 -0.0209497 42.8389 0.0616483 43.0892C1.68203 48.0113 4.50372 52.5489 8.21698 56.2167C12.0554 60.0056 16.8497 62.8582 22.0886 64.4672C30.6921 67.1086 39.8362 66.3171 47.8348 62.2399C55.8323 58.1663 61.7283 51.2875 64.431 42.8828C67.1348 34.478 66.3246 25.5452 62.151 17.7313L62.1534 17.7325Z" fill="#38A27E"/>
<path d="M27.2852 23.8281V32.609H30.4421V30.8718L31.3555 29.8003L33.067 32.609H36.5386L33.3828 27.4307L36.456 23.8281H32.8836L30.4421 27.0901V23.8281H27.2852Z" fill="#231713"/>
<path d="M42.7371 29.1192L40.9431 23.8281H37.6367L41.1593 32.4465C40.9601 32.723 40.7439 32.8036 40.428 32.8036C40.0794 32.8036 39.5474 32.6257 39.0494 32.3326L38.0691 34.491C38.9 34.9455 39.8474 35.254 40.9601 35.254C42.7541 35.254 43.602 34.4424 44.383 32.3978L47.6724 23.8281H44.4328L42.7384 29.1192H42.7371Z" fill="#231713"/>
<path d="M52.5198 26.2486C53.2012 26.2486 53.7162 26.5239 54.1474 27.1089L56.2573 25.6162C55.4933 24.4319 54.2641 23.6523 52.419 23.6523C49.5778 23.6523 47.6016 25.7455 47.6016 28.2291C47.6016 30.7127 49.5948 32.8225 52.3036 32.8225C54.2811 32.8225 55.4763 32.0108 56.3071 30.81L54.1645 29.3006C53.6664 29.869 53.217 30.2262 52.47 30.2262C51.4071 30.2262 50.6759 29.3659 50.6759 28.2303C50.6759 27.0947 51.3731 26.2498 52.5198 26.2498V26.2486Z" fill="#231713"/>
<path d="M4.58323 24.6214C4.6306 24.5846 4.63546 24.517 4.59902 24.4695C4.03541 23.7196 3.04181 22.139 2.75514 21.1126C2.72113 20.9928 2.84746 20.9584 2.90576 21.0675C3.39892 22.0085 4.37188 23.5677 5.81855 24.625H5.81977C6.07607 23.6508 6.93484 20.7899 8.26491 19.061C8.34994 18.9494 8.49813 19.0574 8.43497 19.1808C7.71709 20.5775 6.88018 22.8439 6.86196 24.3805V32.6049H9.43343L9.43586 32.4305C9.44193 31.9404 9.45651 31.4563 9.47837 30.9781C9.48323 30.8986 9.48688 30.8167 9.49173 30.736C9.84642 31.0303 10.2594 31.3009 10.7331 31.5477C11.2943 31.8396 11.9126 32.0888 12.5904 32.2976C13.273 32.5005 13.9958 32.6572 14.7586 32.7663L14.7853 32.5919L14.7804 32.6287L14.7598 32.7663C15.5299 32.8767 16.3134 32.9313 17.1138 32.9313C18.2435 32.9313 19.2638 32.8767 20.1736 32.7663C21.0834 32.6619 21.8863 32.5005 22.5787 32.2786C23.1933 32.0864 23.7059 31.8503 24.1116 31.5678L24.0071 31.4243L24.0095 31.4266L24.1128 31.5678C24.51 31.2854 24.8294 30.9888 25.0651 30.6731C25.3032 30.3611 25.4696 30.0454 25.5583 29.725V29.7227L25.5643 29.7179C25.6542 29.4094 25.7028 29.1258 25.7028 28.8659C25.7028 28.2335 25.4781 27.6615 25.0372 27.1572C24.6521 26.7051 24.1055 26.3052 23.4083 25.9516C23.7909 25.6419 24.0994 25.2907 24.3278 24.8967C24.6059 24.4256 24.7456 23.9237 24.7456 23.3945C24.7456 22.8035 24.5731 22.2518 24.2343 21.738C23.8941 21.2206 23.4168 20.7827 22.8058 20.4208L22.7123 20.5715L22.7196 20.5597L22.8058 20.4208C22.2009 20.0672 21.4915 19.799 20.6801 19.6187C19.8687 19.4383 18.9735 19.3481 17.9969 19.3481C16.9328 19.3481 15.9781 19.4347 15.1315 19.6092C14.297 19.7824 13.5597 20.0031 12.9195 20.2713C12.2831 20.5383 11.7328 20.8338 11.2688 21.1565C11.1048 21.2728 10.9554 21.3855 10.8109 21.4983C11.1413 19.9082 10.8157 18.0666 10.489 16.8123C10.4744 16.7542 10.4173 16.7186 10.3566 16.7281C7.66365 17.1505 5.56833 19.0503 5.15534 20.39C5.07153 20.6617 4.99379 21.0841 4.97435 21.6229C4.9695 21.7486 4.83831 21.7712 4.81037 21.6478C4.7132 21.2159 4.64153 20.6202 4.70956 20.104C4.71441 20.0625 4.69862 20.0209 4.66461 19.9948C4.07671 19.5439 3.24587 19.0859 2.10408 18.8284C2.04942 18.8165 1.99354 18.8426 1.96925 18.8925C0.995077 20.9548 1.47973 22.7988 2.19518 23.7944C2.89119 24.765 3.90423 25.172 4.58444 24.6238L4.58323 24.6214ZM11.7401 23.8264C12.1361 23.3957 12.6195 23.0207 13.1965 22.7039C13.771 22.3882 14.45 22.1378 15.2396 21.9587L15.1995 21.7866H15.2007L15.2408 21.9575C16.0255 21.7736 16.9413 21.6786 17.9908 21.6786C18.4779 21.6786 18.9091 21.7012 19.2857 21.7451C19.6659 21.7902 20.0011 21.8495 20.2914 21.9207C20.5829 21.9943 20.8319 22.0726 21.0372 22.1616C21.2486 22.2506 21.4223 22.336 21.5608 22.4167C21.828 22.5745 22.026 22.7406 22.1608 22.9127C22.2956 23.0848 22.3527 23.2426 22.3527 23.3897C22.3527 23.5238 22.2968 23.6828 22.1584 23.8703C22.0248 24.0495 21.817 24.2227 21.5219 24.3865C21.2304 24.5479 20.8526 24.6867 20.3825 24.797C19.9197 24.9074 19.367 24.9644 18.7208 24.9644H10.8825C11.1267 24.5609 11.4109 24.1812 11.7413 23.8264H11.7401ZM9.60956 29.0261C9.63264 28.8161 9.65693 28.6227 9.67879 28.4471C9.70673 28.237 9.74925 28.0175 9.80634 27.7885C9.85006 27.6093 9.89258 27.4456 9.93023 27.2972H18.5362C19.4193 27.2972 20.1432 27.3566 20.7129 27.4729L20.7493 27.3008V27.3055L20.7129 27.4729C21.296 27.5856 21.749 27.7268 22.0794 27.8941L22.1584 27.7446L22.162 27.7387L22.0794 27.8965C22.4232 28.0673 22.6442 28.2441 22.7669 28.421C22.9005 28.6132 22.9552 28.7805 22.9552 28.9229C22.9552 29.0866 22.8823 29.2445 22.7062 29.4023C22.5264 29.5625 22.2786 29.7108 21.958 29.8425C21.6409 29.9695 21.2729 30.081 20.8538 30.1771V30.1795C20.4396 30.2756 20.012 30.3551 19.5735 30.4168C19.1326 30.4785 18.6978 30.5248 18.269 30.5533C17.839 30.5818 17.4539 30.5948 17.1126 30.5948C16.3656 30.5948 15.6684 30.5438 15.0161 30.4429C14.3626 30.335 13.7662 30.2009 13.2317 30.0371C12.7021 29.8734 12.2418 29.6894 11.8494 29.4842C11.4534 29.2706 11.1522 29.0653 10.9396 28.8671L10.8084 28.7461L10.6845 28.8742L9.52575 30.0703C9.52575 30.0466 9.52817 30.0229 9.52939 30.0003C9.53546 29.89 9.54032 29.7784 9.54761 29.6681C9.56583 29.4474 9.58526 29.2362 9.60834 29.0321L9.45044 29.0143L9.42979 29.0119L9.60713 29.0309L9.60956 29.0261Z" fill="#38A27E"/>
<path d="M33.2389 43.844V40.0812H35.8638V37.5977H27.457V40.0812H30.0819V44.8846C31.1205 44.5002 32.1724 44.1513 33.2389 43.844Z" fill="#231713"/>
<path d="M37.1289 40.0812H39.7538V42.6313C40.3806 42.5885 41.0341 42.566 41.724 42.566C42.024 42.566 42.4419 42.5791 42.9108 42.6241V40.0812H45.5357V37.5977H37.1289V40.0812Z" fill="#231713"/>
<path d="M51.5424 37.3984C48.6515 37.3984 46.5586 39.4916 46.5586 41.9918C46.5586 44.492 48.6357 46.5852 51.5096 46.5852C54.3835 46.5852 56.4934 44.492 56.4934 41.9918C56.4934 39.4916 54.4163 37.3984 51.5424 37.3984ZM51.5424 43.9711C50.4298 43.9711 49.6317 43.0621 49.6317 41.9906C49.6317 40.9191 50.363 40.0102 51.5096 40.0102C52.6563 40.0102 53.4203 40.9191 53.4203 41.9906C53.4203 43.0621 52.6891 43.9711 51.5424 43.9711Z" fill="#231713"/>
<path d="M16.3638 46.3786V37.5977H13.208V40.7137H10.6159V37.5977H7.45898V46.3786H10.6159V43.1973H13.208V46.3786H16.3638Z" fill="#231713"/>
<path d="M26.6103 42.203C26.6103 39.6221 25.1818 37.3984 22.0747 37.3984C19.417 37.3984 17.5391 39.4275 17.5391 41.9918C17.5391 44.7507 19.5323 46.5852 22.3565 46.5852C24.1505 46.5852 25.3968 45.8708 26.2604 44.8005L24.5162 43.3885C23.8687 44.0055 23.2699 44.2808 22.5229 44.2808C21.5426 44.2808 20.8284 43.7943 20.5794 42.8367H26.5933C26.6103 42.6255 26.6103 42.3988 26.6103 42.2042V42.203ZM20.5296 41.262C20.696 40.3044 21.2608 39.672 22.0917 39.672C22.9225 39.672 23.5371 40.289 23.6537 41.262H20.5308H20.5296Z" fill="#231713"/>
<path d="M26.8589 48.1246C26.9269 48.3702 27.1067 48.4865 27.3922 48.4497C27.6485 48.42 27.9084 48.3702 28.1598 48.312C30.011 47.8955 31.8658 47.5206 33.7559 47.3248C35.7006 47.1207 37.6501 46.9913 39.6069 47.0827C40.8653 47.1373 42.1189 47.2655 43.3688 47.3995C44.2045 47.4874 45.028 47.6452 45.8601 47.7662C46.2488 47.8208 46.4565 47.6535 46.4614 47.2666C46.4614 47.0163 46.4407 46.7706 46.4103 46.525C46.3338 45.8914 46.1285 45.3087 45.6123 44.8792C45.2066 44.5457 44.7256 44.3749 44.2215 44.2586C43.2668 44.0414 42.2902 43.9963 41.7266 43.9963C39.3166 43.9963 37.3549 44.2716 35.4187 44.7131C33.0513 45.2506 30.7532 46.0136 28.5145 46.9249C27.9983 47.1337 27.5124 47.4209 27.018 47.6831C26.8395 47.7793 26.8091 47.9418 26.8601 48.1246H26.8589Z" fill="#38A27E"/>
</svg>
