<svg width="27" height="33" viewBox="0 0 27 33" fill="none" xmlns="http://www.w3.org/2000/svg">
<path d="M14.8982 30.1922C14.0809 31.8366 13.1989 32.1324 11.5548 31.3152L2.6208 26.8745C0.976127 26.057 0.680017 25.1756 1.49737 23.5312L11.8587 2.68578C12.6761 1.04139 13.5575 0.745282 15.2022 1.56278L24.1359 6.00335C25.78 6.82056 26.0767 7.70225 25.2593 9.34664L14.8982 30.1922Z" fill="#F3F4F5"/>
<path d="M24.4845 9.19298L12.3867 3.17969L2.33373 23.4047L14.4315 29.418L24.4845 9.19298Z" fill="url(#paint0_linear_1948_7240)"/>
<path d="M9.62527 12.2271L19.0318 16.9027C19.2626 17.0174 19.5417 16.9234 19.6561 16.6932L20.408 15.1806L20.0163 14.0147C20.0163 14.0147 19.8575 13.2244 19.4348 13.0433C19.0535 12.8802 18.3921 13.129 18.2637 13.1795L18.0028 12.4045C18.0028 12.4045 17.8169 11.4788 17.3215 11.2657C16.8256 11.0537 15.9165 11.439 15.9165 11.439L15.6805 11.5185L15.1904 10.059C15.1904 10.059 14.9612 8.92096 14.3519 8.65971C13.7437 8.39903 12.6258 8.87167 12.6258 8.87167L10.4007 9.6192L9.4145 11.6032C9.30065 11.833 9.39509 12.1127 9.62527 12.2271Z" fill="#6CC077"/>
<path d="M14.3519 8.65895C14.9612 8.9202 15.1904 10.0582 15.1904 10.0582L15.6805 11.5178L15.9165 11.4383C15.9165 11.4383 16.8256 11.053 17.3215 11.2649C17.817 11.4777 18.0028 12.4037 18.0028 12.4037L18.2634 13.1793C18.3918 13.1289 19.0532 12.88 19.4345 13.0431C19.8569 13.2241 20.016 14.0145 20.016 14.0145L20.4077 15.1804L22.3579 11.2567C22.4725 11.0263 22.3795 10.7466 22.1484 10.6317L12.7419 5.95614C12.5117 5.84173 12.2313 5.93546 12.1166 6.16621L10.4007 9.61844L12.6258 8.87091C12.6258 8.87091 13.7437 8.39827 14.3519 8.65895Z" fill="#DBF0F5"/>
<path d="M20.5859 5.29492C20.5391 5.38908 20.391 5.40963 20.2553 5.34216L18.0725 4.25718C17.9362 4.18943 17.8631 4.05897 17.9099 3.9648C17.9563 3.87148 18.1047 3.85037 18.241 3.91812L20.4238 5.0031C20.5596 5.07057 20.6323 5.2016 20.5859 5.29492Z" fill="#B8B9BA"/>
<path d="M10.5743 22.0742C10.7626 22.1679 10.9912 22.0911 11.0848 21.9027C11.1784 21.7144 11.1017 21.4858 10.9133 21.3922C10.725 21.2986 10.4964 21.3753 10.4028 21.5637C10.3091 21.752 10.3859 21.9806 10.5743 22.0742Z" fill="white"/>
<path d="M11.8763 22.5667C11.9962 22.6263 12.1418 22.5774 12.2014 22.4575C12.261 22.3375 12.2121 22.192 12.0922 22.1324C11.9722 22.0727 11.8267 22.1216 11.7671 22.2416C11.7074 22.3615 11.7563 22.5071 11.8763 22.5667Z" fill="white"/>
<path d="M12.8685 23.0599C12.9884 23.1195 13.134 23.0706 13.1936 22.9507C13.2532 22.8307 13.2043 22.6851 13.0844 22.6255C12.9644 22.5659 12.8189 22.6148 12.7592 22.7348C12.6996 22.8547 12.7485 23.0003 12.8685 23.0599Z" fill="white"/>
<path d="M8.40362 20.8404C8.52372 20.9001 8.66948 20.8511 8.72918 20.731C8.78887 20.6109 8.73991 20.4652 8.61981 20.4055C8.4997 20.3458 8.35395 20.3947 8.29425 20.5148C8.23456 20.6349 8.28352 20.7807 8.40362 20.8404Z" fill="white"/>
<path d="M9.39581 21.3333C9.51575 21.3929 9.66132 21.344 9.72094 21.2241C9.78056 21.1041 9.73165 20.9586 9.61171 20.899C9.49176 20.8393 9.3462 20.8882 9.28658 21.0082C9.22696 21.1281 9.27586 21.2737 9.39581 21.3333Z" fill="white"/>
<path opacity="0.5" d="M24.4791 9.19031L12.3867 3.17969L11.8828 4.19347L23.9752 10.2041L24.4791 9.19031Z" fill="#202121"/>
<path d="M22.3062 9.02507C22.4488 9.09594 22.6218 9.03781 22.6927 8.89522C22.7636 8.75263 22.7055 8.57958 22.5629 8.5087C22.4203 8.43783 22.2472 8.49596 22.1764 8.63855C22.1055 8.78114 22.1636 8.95419 22.3062 9.02507Z" fill="white"/>
<path d="M12.6421 4.22233C12.7847 4.29321 12.9578 4.23507 13.0287 4.09248C13.0995 3.94989 13.0414 3.77684 12.8988 3.70597C12.7562 3.63509 12.5832 3.69323 12.5123 3.83582C12.4414 3.97841 12.4996 4.15146 12.6421 4.22233Z" fill="white"/>
<path d="M23.482 9.611C23.6246 9.68188 23.7976 9.62374 23.8685 9.48115C23.9394 9.33856 23.8812 9.16551 23.7386 9.09464C23.5961 9.02376 23.423 9.0819 23.3521 9.22449C23.2813 9.36708 23.3394 9.54013 23.482 9.611Z" fill="white"/>
<path d="M8.55376 18.3287C8.43935 18.5589 8.15994 18.6528 7.92947 18.5382L6.71208 17.9331C6.48133 17.8184 6.38704 17.5391 6.5016 17.3087L7.10685 16.091C7.22154 15.8603 7.50109 15.7661 7.73213 15.8809L8.94951 16.4861C9.1797 16.6005 9.27385 16.88 9.15901 17.1111L8.55376 18.3287Z" fill="#B5DBAF"/>
<path d="M11.3116 19.7013C11.1972 19.9315 10.9172 20.0251 10.6867 19.9105L9.4699 19.3057C9.23914 19.191 9.14485 18.9117 9.25941 18.6812L9.86466 17.4636C9.97936 17.2328 10.2589 17.1387 10.4899 17.2535L11.7068 17.8583C11.9369 17.9728 12.0317 18.2526 11.9168 18.4836L11.3116 19.7013Z" fill="#F6A2A3"/>
<path d="M14.0739 21.0729C13.9594 21.3031 13.6795 21.3967 13.4496 21.2824L12.2322 20.6773C12.002 20.5629 11.9066 20.283 12.0211 20.0526L12.6264 18.8349C12.7411 18.6042 13.0218 18.5106 13.2522 18.6251L14.4696 19.2302C14.6995 19.3445 14.7939 19.6242 14.6791 19.8552L14.0739 21.0729Z" fill="#67B8CB"/>
<path d="M16.8344 22.4451C16.72 22.6753 16.4406 22.7692 16.2102 22.6546L14.9928 22.0495C14.762 21.9348 14.6683 21.6558 14.7828 21.4254L15.3881 20.2077C15.5028 19.977 15.7818 19.8825 16.0128 19.9974L17.2302 20.6025C17.4604 20.7169 17.5545 20.9964 17.4397 21.2275L16.8344 22.4451Z" fill="#F2EADF"/>
<path d="M18.531 18.9547C18.4167 19.1846 18.1379 19.2787 17.9068 19.1639L8.50028 14.4883C8.2701 14.3739 8.17524 14.0943 8.28966 13.8642L8.52496 13.3908C8.63951 13.1603 8.91962 13.0664 9.15009 13.181L18.5566 17.8566C18.7874 17.9713 18.881 18.2505 18.7663 18.4813L18.531 18.9547Z" stroke="#67B8CB" stroke-width="0.5" stroke-miterlimit="10"/>
<path d="M17.5858 18.4145C17.757 18.4996 17.9647 18.4298 18.0498 18.2587C18.1349 18.0875 18.0651 17.8798 17.8939 17.7947C17.7227 17.7096 17.515 17.7794 17.4299 17.9506C17.3448 18.1217 17.4146 18.3295 17.5858 18.4145Z" fill="#DBF0F5"/>
<path d="M18.0218 18.9474C17.9856 18.9594 17.9426 18.9296 17.9265 18.8803L17.7513 18.3587C17.7348 18.3103 17.7503 18.2606 17.7867 18.2484L17.8329 18.2329C17.8694 18.2203 17.9122 18.2508 17.9282 18.3L18.1037 18.821C18.12 18.87 18.1044 18.9197 18.0674 18.9317L18.0218 18.9474Z" fill="#DBF0F5"/>
<path d="M5.76522 22.7522C5.67217 22.9394 5.44469 23.016 5.25692 22.9227L4.26548 22.4299C4.07771 22.3366 4.00091 22.1087 4.09396 21.9215L4.58705 20.9295C4.68024 20.742 4.90828 20.6656 5.09605 20.7589L6.08749 21.2517C6.27526 21.3451 6.35149 21.5727 6.2583 21.7602L5.76522 22.7522Z" fill="#67B8CB"/>
<path d="M8.01131 23.8699C7.91826 24.0571 7.68965 24.1332 7.50245 24.0401L6.51101 23.5473C6.32324 23.454 6.24701 23.2264 6.34006 23.0392L6.83314 22.0471C6.92633 21.8597 7.15381 21.783 7.34158 21.8763L8.33302 22.3691C8.52022 22.4622 8.59759 22.6904 8.5044 22.8779L8.01131 23.8699Z" fill="#F2EADF"/>
<path d="M10.2594 24.987C10.1663 25.1743 9.93827 25.2506 9.75106 25.1576L8.75962 24.6648C8.57185 24.5714 8.49505 24.3435 8.5881 24.1563L9.08119 23.1643C9.17438 22.9768 9.40242 22.9005 9.59019 22.9938L10.5816 23.4866C10.7688 23.5797 10.8456 23.8076 10.7524 23.995L10.2594 24.987Z" fill="#B5DBAF"/>
<path d="M12.5068 26.1049C12.4138 26.2921 12.1857 26.3685 11.9985 26.2755L11.0071 25.7827C10.8188 25.689 10.7431 25.4617 10.8362 25.2745L11.3292 24.2825C11.4224 24.095 11.6493 24.0181 11.8377 24.1117L12.8291 24.6045C13.0163 24.6975 13.0931 24.9254 12.9999 25.1129L12.5068 26.1049Z" fill="#D3D4E3"/>
<path d="M14.7418 27.2153C14.6487 27.4025 14.4207 27.4789 14.2335 27.3858L13.242 26.893C13.0537 26.7994 12.9775 26.5718 13.0705 26.3846L13.5636 25.3926C13.6568 25.2051 13.8843 25.1285 14.0726 25.2221L15.0641 25.7149C15.2513 25.8079 15.3281 26.0358 15.2349 26.2233L14.7418 27.2153Z" fill="#F6A2A3"/>
<path d="M9.04433 28.5681C8.91895 28.8204 8.66378 28.9485 8.47431 28.8543L6.46174 27.854C6.27284 27.7601 6.22105 27.479 6.34629 27.2271L6.50737 26.903C6.63289 26.6505 6.88793 26.5226 7.07683 26.6165L9.0894 27.6169C9.27887 27.711 9.33079 27.9918 9.20541 28.2441L9.04433 28.5681Z" stroke="#B8B9BA" stroke-width="0.5" stroke-miterlimit="10"/>
<path d="M20.8507 5.67459C20.9535 5.72567 21.0782 5.68377 21.1293 5.58101C21.1803 5.47825 21.1384 5.35353 21.0357 5.30245C20.9329 5.25137 20.8082 5.29327 20.7571 5.39603C20.706 5.4988 20.7479 5.62351 20.8507 5.67459Z" fill="#B8B9BA"/>
<path d="M21.3488 5.92118C21.4515 5.97226 21.5762 5.93036 21.6273 5.82759C21.6784 5.72483 21.6365 5.60011 21.5337 5.54903C21.431 5.49795 21.3062 5.53985 21.2552 5.64261C21.2041 5.74538 21.246 5.8701 21.3488 5.92118Z" fill="#B8B9BA"/>
<path d="M23.0601 6.94939C23.1983 7.01809 23.366 6.96174 23.4347 6.82352C23.5034 6.6853 23.4471 6.51756 23.3089 6.44886C23.1706 6.38016 23.0029 6.43651 22.9342 6.57473C22.8655 6.71294 22.9219 6.88069 23.0601 6.94939Z" fill="#B8B9BA"/>
<defs>
<linearGradient id="paint0_linear_1948_7240" x1="18.4357" y1="6.18655" x2="8.38277" y2="26.4114" gradientUnits="userSpaceOnUse">
<stop stop-color="#5978BA"/>
<stop offset="0.703" stop-color="#4E9DB8"/>
<stop offset="1" stop-color="#379CC9"/>
</linearGradient>
</defs>
</svg>
