<svg width="22" height="22" viewBox="0 0 22 22" fill="none" xmlns="http://www.w3.org/2000/svg">
<path d="M20.3689 21.2553C20.9056 21.792 21.7339 20.9636 21.1972 20.4386L16.8222 16.052C18.3573 14.3541 19.2057 12.1459 19.2022 9.85698C19.2022 4.73531 15.0372 0.570312 9.91557 0.570312C4.79391 0.570312 0.628906 4.73531 0.628906 9.85698C0.628906 14.9786 4.79391 19.1436 9.91557 19.1436C12.2256 19.1436 14.3606 18.292 15.9939 16.8803L20.3689 21.2553ZM1.79441 9.85698C1.79441 5.37698 5.44607 1.73698 9.91441 1.73698C14.3944 1.73698 18.0344 5.37698 18.0344 9.85698C18.0344 14.337 14.3944 17.977 9.91441 17.977C5.44607 17.977 1.79441 14.337 1.79441 9.85698Z" fill="white"/>
</svg>
