<svg width="20" height="21" viewBox="0 0 20 21" fill="none" xmlns="http://www.w3.org/2000/svg">
<path d="M4.29977 3.25024H19L17 10.2502H5.37671M18 14.2502H6L4 1.25024H1M7 18.2502C7 18.8025 6.55228 19.2502 6 19.2502C5.44772 19.2502 5 18.8025 5 18.2502C5 17.6979 5.44772 17.2502 6 17.2502C6.55228 17.2502 7 17.6979 7 18.2502ZM18 18.2502C18 18.8025 17.5523 19.2502 17 19.2502C16.4477 19.2502 16 18.8025 16 18.2502C16 17.6979 16.4477 17.2502 17 17.2502C17.5523 17.2502 18 17.6979 18 18.2502Z" stroke="#231713" stroke-width="2" stroke-linecap="round" stroke-linejoin="round"/>
</svg>
